<svg width="25" height="22" viewBox="0 0 25 22" fill="none" xmlns="http://www.w3.org/2000/svg">
<path d="M21.8688 2.78661C20.7004 1.64144 19.1297 1 17.4938 1C15.8578 1 14.2871 1.64144 13.1188 2.78661L12.3688 3.78661L11.4937 3.03661C10.9206 2.41627 10.224 1.9228 9.44861 1.58796C8.67326 1.25312 7.83639 1.08433 6.99187 1.09244C6.14734 1.10056 5.31387 1.2854 4.54509 1.63508C3.77632 1.98476 3.08927 2.49153 2.52817 3.12276C1.96708 3.754 1.54436 4.49572 1.28722 5.30019C1.03009 6.10466 0.944232 6.95405 1.03519 7.79371C1.12614 8.63336 1.39189 9.44467 1.81532 10.1754C2.23876 10.9062 2.8105 11.5402 3.49375 12.0366L12.4938 20.7866L21.4938 12.0366C24.4938 9.03661 24.2438 5.28661 21.9938 2.78661" fill="#EFB7C2"/>
<path d="M21.8688 2.78661C20.7004 1.64144 19.1297 1 17.4938 1C15.8578 1 14.2871 1.64144 13.1188 2.78661L12.3688 3.78661L11.4937 3.03661C10.9206 2.41627 10.224 1.9228 9.44861 1.58796C8.67326 1.25312 7.83639 1.08433 6.99187 1.09244C6.14734 1.10056 5.31387 1.2854 4.54509 1.63508C3.77632 1.98476 3.08927 2.49153 2.52817 3.12276C1.96708 3.754 1.54436 4.49572 1.28722 5.30019C1.03009 6.10466 0.944232 6.95405 1.03519 7.79371C1.12614 8.63336 1.39189 9.44467 1.81532 10.1754C2.23876 10.9062 2.8105 11.5402 3.49375 12.0366L12.4938 20.7866L21.4938 12.0366C24.4938 9.03661 24.2438 5.28661 21.9938 2.78661" stroke="black" stroke-width="2" stroke-linecap="round" stroke-linejoin="round"/>
</svg>
